<svg viewBox="0 0 16 16" xmlns="http://www.w3.org/2000/svg"><path d="m7.079463.246657c.569628-.328875 1.271445-.328875 1.841072 0l5.333771 3.07947c.569628.32888.920536.936664.920536 1.594415v6.15894c0 .657724-.350908 1.265553-.920536 1.594461l-5.333771 3.079377c-.569628.328907-1.271445.328907-1.841072 0l-5.333799-3.07947c-.569629-.328815-.920535-.936646-.920535-1.594369v-6.15894c0-.657751.350907-1.265535.920535-1.594415z" fill="#7e4799"/><g fill="#fff" fill-rule="evenodd"><path d="m7.53603 6.188773-1.701142.597106v-2.468013l1.701142.537381z"/><path d="m4.310508 4.735854v1.612153l1.259285.437871v-2.448093l-1.259285.398068zm.066297 1.47284v-1.333526l.198808-.059715v1.452965l-.198808-.059725zm.397625.099519-.088353-.01992v-1.49276l.265105-.059678v1.632074l-.088353-.01992-.088399-.039795zm.397681.119439-.110473-.03985v-1.691789l.110473-.019875.110464-.039804.132576-.039841v1.890827l-.132576-.039795-.110464-.019874z"/><path d="m11.490672 6.188773-1.701133.597106v-2.468013l1.701133.537381z"/><path d="m8.265104 4.735854v1.612153l1.259284.437871v-2.448093l-1.259284.398068zm.066296 1.47284v-1.333526l.198808-.059715v1.452965l-.066233-.019929-.132576-.039795zm.397681.099519-.088408-.01992v-1.49276l.265151-.059678v1.632074l-.088399-.01992-.088344-.039795zm.397672.119439-.110455-.03985v-1.691789l.110455-.019875.110464-.039804.132529-.039841v1.890827l-.132529-.039795-.110464-.019874z"/><path d="m7.53603 11.085004-1.701142.597152v-2.46805l1.701142.537409z"/><path d="m4.310508 9.632122v1.612135l1.259285.437899v-2.448166zm.066297 1.472858v-1.333581l.198808-.059651v1.452882zm.397625.09951-.088353-.019883v-1.492834l.265105-.059651v1.632018l-.088353-.019883zm.397681.119393-.110473-.039767v-1.691854l.110473-.019883.110464-.039859.132576-.039767v1.890874l-.132576-.039859z"/><path d="m11.490672 11.085004-1.701133.597152v-2.46805l1.701133.537409z"/><path d="m8.265104 9.632122v1.612135l1.259284.437899v-2.448166zm.066296 1.472858v-1.333581l.198808-.059651v1.452882zm.397681.09951-.088408-.019883v-1.492834l.265151-.059651v1.632018l-.088399-.019883zm.397672.119393-.110455-.039767v-1.691854l.110455-.019883.110464-.039859.132529-.039767v1.890874l-.132529-.039859z"/><path d="m9.634853 8.636912-1.67903.577195v-2.448102l1.67903.537382v1.333526z"/><path d="m6.409321 7.164072v1.612153l1.259284.437881v-2.448102l-1.259284.398067zm.066297 1.47284v-1.333526l.198808-.059715v1.452965l-.198808-.059725zm.397626.11944-.088353-.01992v-1.49276l.265105-.059725v1.632129l-.088353-.01993zm.397681.119393-.110473-.039795v-1.691798l.110473-.019875.110464-.03985.132576-.039795v1.890827l-.132576-.039795z"/><path d="m5.702359 8.636912-1.679076.577195v-2.448102l1.679076.537382v1.333526z"/><path d="m2.476781 7.164072v1.612153l1.259284.437881v-2.448102l-1.259284.398067zm.066297 1.47284v-1.333526l.198808-.059715v1.452965l-.198808-.059725zm.397681.11944-.088408-.01992v-1.49276l.265105-.059725v1.632129l-.088353-.01993zm.397626.119393-.110473-.039795v-1.691798l.110473-.019875.110464-.03985.132576-.039795v1.890827l-.132576-.039795z"/><path d="m13.523216 8.636912-1.679058.577195v-2.448102l1.679058.537382v1.333526z"/><path d="m7.53603 6.188773-1.701142.597106v-2.468013l1.701142.537381z"/><path d="m11.490672 6.188773-1.701133.597106v-2.468013l1.701133.537381z"/><path d="m7.53603 11.085004-1.701142.597152v-2.46805l1.701142.537409z"/><path d="m11.490672 11.085004-1.701133.597152v-2.46805l1.701133.537409z"/><path d="m9.634853 8.636912-1.67903.577195v-2.448102l1.67903.537382v1.333526z"/><path d="m5.702359 8.636912-1.679076.577195v-2.448102l1.679076.537382v1.333526z"/><path d="m13.523216 8.636912-1.679058.577195v-2.448102l1.679058.537382v1.333526z"/><path d="m10.297658 7.164072v1.612153l1.259294.437881v-2.448102l-1.259294.398067zm.066278 1.47284v-1.333526l.198835-.059715v1.452965l-.198835-.059725zm.397672.11944-.088371-.01992v-1.49276l.265115-.059725v1.632129l-.088371-.01993-.088372-.039794zm.397671.119393-.110464-.039795v-1.691798l.110464-.019875.110464-.03985.132557-.039795v1.890827l-.132557-.039795z"/></g><path d="m0 0h16v16h-16z" fill="none"/></svg>