<svg viewBox="0 0 16 16" xmlns="http://www.w3.org/2000/svg"><path d="m9.722853 5.9017-1.855134 2.151955 2.018386 2.353923h-.753668l-1.811901-2.114529v2.173249h-.543312v-4.6188h.543312v1.901593l1.679622-1.847391zm4.662032 4.356177-2.173894-1.304078v-3.106301c.000196-.096752-.051204-.18627-.13486-.234876l-3.125013-1.82287v-2.62816l5.433122 3.210833.000646 5.885452zm.409743-6.274546-5.97708-3.530884c-.129824-.075909-.296604-.032202-.372513.097622-.024129.041267-.03697.08816-.03723.135963v3.260518c0 .09679.051621.185836.134215.234231l3.125658 1.823516v3.103719c-.000273.095764.050012.184563.132279.233585l2.716559 1.629937c.127933.077691.294624.03696.372315-.090972.025979-.042781.039604-.091919.039364-.141969v-6.521037c.000233-.096257-.050609-.185415-.133569-.23423zm-6.80947 11.335996-6.370045-3.386344v-7.560558l5.433767-3.210833v2.635258l-2.862391 1.82158c-.078239.049924-.125662.136259-.125827.229068v4.618799c-.000118.101157.056111.193959.14583.240684l3.65542 1.902238c.07828.040634.171437.040634.249717 0l3.54637-1.83255 2.182283 1.309886-5.855124 3.232773zm6.539749-3.456034-2.716559-1.629937c-.080893-.048839-.181384-.052017-.265203-.008388l-3.555404 1.837066-3.383764-1.760925v-4.30391l2.86239-1.822225c.078239-.049924.125662-.136259.125826-.229069v-3.261163c-.000197-.150031-.121981-.271496-.272013-.271299-.048452.000064-.096005.013085-.13773.037713l-5.97708 3.532175c-.082864.048911-.133672.138008-.13357.234231v7.878672c0 .100661.055493.192934.143894.240038l6.644282 3.532175c.081147.042912.178476.041941.258751-.002581l6.397791-3.531528c.131418-.073115.178682-.238922.105567-.37034-.023067-.04146-.056565-.076173-.097178-.100704z" fill="#f90"/></svg>