<?xml version="1.0" encoding="UTF-8"?><svg id="a" xmlns="http://www.w3.org/2000/svg" viewBox="0 0 16 16"><path d="M0,0h16v16H0V0Z" fill="none" stroke-width="0"/><path d="M8.3,4.1V.7h-.6v3.5l-2.8,1.6,3.099999,1.7,3.1-1.8-2.8-1.6Z" fill="#4385f3" stroke-width="0"/><path d="M14,11.2l-2.6-1.5v-3.3l-3,1.8v3.599999l2.8-1.6,2.599999,1.5.200001-.499999Z" fill="#4385f3" stroke-width="0"/><path d="M7.6,8.2l-3.1-1.8v3.2l-2.7,1.6.3.5,2.7-1.6,2.8,1.6s0-3.500001,0-3.5Z" fill="#4385f3" stroke-width="0"/><path d="M14.9,12V4L8,0,1.099999,4v8l6.9,4,6.9-4ZM8,14.2l-5.4-3.099999v-6.2L8,1.800001l5.4,3.1v6.2s-5.4,3.1-5.4,3.099999Z" fill="#4385f3" stroke-width="0"/></svg>