<?xml version="1.0" encoding="UTF-8"?><svg id="a" xmlns="http://www.w3.org/2000/svg" viewBox="0 0 16 16"><path d="M15.502502,1.945746c-.317322-.317261-.747314-.496155-1.195984-.497437H1.693481c-.44873.001282-.878723.180176-1.195984.497437C.180176,2.263068.001343,2.693061,0,3.141791v9.716431c.001343.448792.180176.878784.497498,1.196045.317261.317322.747253.496094,1.195984.497437h12.613037c.448669-.001343.878662-.180115,1.195984-.497437.317322-.317261.496216-.747253.497498-1.196045V3.141791c-.001282-.44873-.180176-.878723-.497498-1.196045ZM7.143616,10.475654c-.02771.104614-.075806.202698-.141541.288696-.065674.085999-.147644.158203-.241272.212524l-3.078186,1.788818c-.093506.054382-.196777.089722-.304016.104187-.107178.014404-.216187.007629-.32074-.020081-.211182-.055969-.391418-.193481-.501221-.382385-.109741-.188904-.139954-.413635-.084045-.624817.055969-.211121.193481-.391418.382385-.50116l3.078125-1.788818c.093567-.054443.196899-.089966.304138-.104431.107239-.014526.216248-.007751.320923.019958.104614.027649.202759.075684.288818.141296s.158325.147522.212708.241089c.054382.093628.089783.19696.104187.304199.014404.1073.007507.216309-.020264.320923ZM8.552856,8.011481c-.154358.153687-.363281.23999-.581116.23999h-.003662c-.108215-.000427-.21521-.022217-.314941-.064026-.099731-.04187-.190308-.102905-.266418-.179749-.076172-.076782-.136414-.167847-.177368-.267944-.040955-.100159-.061829-.207336-.06134-.315491l.015442-3.546082c.000977-.217834.088135-.426392.242493-.580078s.363281-.23999.581116-.23999h.003662c.218445.000916.427551.088623.58136.243774s.239624.36499.238647.583435l-.015381,3.546082c-.000977.217834-.088196.426392-.242493.580078ZM13.418213,12.465095c-.054138.093689-.126099.175781-.211914.241699s-.183716.114197-.288208.142212-.213501.035095-.320679.020996c-.1073-.014221-.210693-.049316-.304382-.103394l-3.082642-1.779846c-.093811-.054016-.176025-.125977-.241943-.211792-.065979-.085815-.114319-.183838-.142395-.28833-.028076-.104553-.035217-.213562-.021118-.320862s.049194-.210815.103271-.304504c.054138-.09375.126221-.175903.212097-.24176s.183899-.114136.288452-.14209.213562-.035034.320862-.020874c.1073.014221.210754.049438.304382.103638l3.082703,1.779785c.093689.054077.175781.126038.241577.211853.065918.085876.114197.183777.142212.288269s.035095.213379.020996.320679c-.014099.107239-.049255.210632-.103271.304321Z" fill="#ffc61c" stroke-width="0"/><rect width="16" height="16" fill="none" stroke-width="0"/></svg>