<svg viewBox="0 0 16 16" xmlns="http://www.w3.org/2000/svg"><path d="m14.3065 1.4483h-12.613c-.44874.001314-.878724.180156-1.196032.497462-.317307.317306-.496152.747288-.497468 1.196028v9.71641c.001316.4488.180161.8788.497468 1.1961.317308.3173.747292.4961 1.196032.4974h12.612999c.4487-.0013.878699-.1801 1.195999-.4974.317301-.3173.496201-.7473.4975-1.1961v-9.71641c-.0013-.44874-.1802-.878722-.4975-1.196028s-.747299-.496148-1.195998-.497462z" fill="#ffc61c"/><g fill="#fff"><path d="m6.7608 10.97687-3.07817 1.78883c-.09351.0544-.19682.0897-.30402.1042-.1072.0144-.21618.0076-.32074-.020101-.21116-.056-.39145-.1935-.50121-.3824-.10975-.1889-.13999-.4136-.08405-.6248.05595-.211101.19348-.3914.38235-.501161l3.07816-1.78883c.09353-.05445.19686-.08994.30411-.10443.10724-.0145.21629-.00772.32092.01995.10462.02768.20276.07569.28882.141311.08606.065619.15834.14755.21271.241119.05438.09357.08978.19694.10419.304191.0144.10726.00753.21631-.02023.32091-.02775.1046-.07585.2027-.14154.2887-.06569.085999-.14769.15822-.2413.212509z"/><path d="m7.97175 8.2515h-.0037c-.10817-.00047-.21518-.02224-.31492-.06407-.09975-.04183-.19029-.10289-.26643-.17971-.07615-.07681-.13642-.16788-.17738-.26799-.04095-.10011-.06178-.20731-.06131-.31547l.01545-3.54609c.00096-.21781.08815-.42637.24249-.58005.15434-.15369.36327-.23999.58108-.24003h.0037c.218441.00096.42756.08865.58134.24378.15379.15514.23965.36501.238689.58346l-.01544 3.54609c-.000959.21781-.08815.42637-.24249.58005-.15434.15369-.36327.23999-.58108.240031z"/><path d="m13.4182 12.4651c-.054099.0937-.1261.1758-.2119.2417s-.1837.1142-.288199.1422c-.104501.028001-.2135.0351-.320701.021-.1073-.014199-.2107-.049299-.304399-.103399l-3.08263-1.77983c-.093781-.05403-.17599-.12601-.24194-.211821-.06594-.085819-.114329-.183789-.142389-.28832s-.03524-.21356-.02114-.32086c.0141-.10731.04921-.21078.10333-.30451.054111-.09373.12617-.17587.21205-.24174.08587-.06586.183889-.11415.28844-.142119.10456-.027961.2136-.03504.32089-.020841.107289.0142.21073.04941.30439.103621l3.0827 1.779778c.093699.05408.175799.12604.2416.211841.0659.085899.1142.1838.1422.2883s.0351.2134.021.3207c-.0141.107201-.049299.210601-.103302.304301z"/></g><path d="m0 0h16v16h-16z" fill="none"/></svg>