<svg viewBox="0 0 16 16" xmlns="http://www.w3.org/2000/svg"><path d="m7.944533.001368c-.141445.007125-.280031.042195-.407628.103152l-5.562383 2.657765c-.291636.139277-.503461.402683-.575517.715661l-1.372277 5.970011c-.06402.277896-.011928.569661.144413.808854.018764.028943.038944.056957.060468.083944l3.850059 4.786964c.201876.250918.507957.39702.831619.396957l6.174181-.001423c.323541.000236.629601-.145594.831619-.396246l3.848637-4.787676c.201983-.251044.27766-.579676.205593-.892798l-1.374411-5.970011c-.072056-.312978-.283881-.576385-.575517-.715661l-5.563096-2.656341c-.160498-.076679-.337843-.112148-.51576-.103152z" fill="#326ce5"/><path d="m7.99965 2.033042c-.183869.000019-.332954.165633-.332932.369924 0 .003135.000642.006132.00071.009248-.000271.027758-.001612.061199-.00071.085367.004385.117829.03007.208011.045529.31657.028007.23235.051475.424955.036992.603973-.014084.067506-.063807.129244-.108132.172157l-.007825.140856c-.199801.016554-.400937.046866-.601839.092481-.864476.196281-1.608774.641576-2.17544 1.242804-.03677-.025085-.101098-.071234-.120226-.085367-.059442.008027-.119519.026368-.197767-.019208-.148992-.100293-.284691-.238731-.448889-.405494-.075236-.079771-.12972-.155733-.219109-.232626-.0203-.017462-.051279-.041079-.073985-.059046-.069885-.055718-.152311-.084776-.231914-.087501-.102347-.003504-.200873.036511-.26535.11738-.114625.143767-.077926.363506.08181.490861.001621.001291.003347.002294.00498.003557.02195.017793.048829.040592.069005.055489.094857.070036.181507.105889.276021.161486.199122.12297.364196.224934.49513.347871.05113.054502.060066.15054.066871.192076l.106709.095327c-.571241.859674-.835616 1.921546-.679379 3.003502l-.139433.040549c-.036749.047455-.088678.122126-.142991.144413-.171306.053957-.364102.073771-.596859.098172-.109277.009087-.203565.003664-.319416.02561-.025498.00483-.061025.014086-.088924.02063-.00097.000204-.001876.000492-.002846.00071-.001521.000353-.003518.001091-.00498.001423-.196234.047413-.322295.227782-.281712.405494.040593.177754.23227.285849.429681.243296.001425-.000325.003494-.000381.00498-.00071.002229-.00051.004191-.001591.006403-.002133.027519-.006041.062005-.012762.086079-.019208.113899-.030495.196389-.075305.298785-.114534.220291-.07901.402745-.145016.580497-.170734.074239-.005815.152457.045806.191365.067582l.145124-.024899c.333961 1.035397 1.033834 1.872273 1.92005 2.397395l-.060468.145124c.021795.056352.045834.132597.029599.188248-.064621.167575-.175309.34445-.301351.541641-.061028.091101-.123487.161802-.17856.266061-.013178.024947-.029962.06327-.042684.089636-.085568.183081-.022802.393945.141567.473076.165402.079627.370709-.004356.45956-.187808.000137-.00026.000585-.00045.00071-.00071.000091-.000204-.000091-.000513 0-.00071.012656-.02601.030585-.060197.041261-.084656.047171-.108064.062867-.200671.096038-.305188.08809-.221275.136489-.453448.257754-.598119.033206-.039616.087344-.054851.143472-.069879l.075408-.136587c.77259.296549 1.63738.376127 2.501258.179982.197073-.044746.387326-.102656.571249-.172157.021193.037591.06058.109855.071139.128051.057039.018557.119297.02814.170023.103152.090726.155003.152771.338376.228357.559866.033176.104515.049572.197125.096749.305188.010753.024631.028593.059299.041261.085367.088664.184048.294622.268319.460271.188519.164349-.079173.227184-.290019.141567-.473076-.012723-.026365-.030215-.064688-.043395-.089636-.055078-.104257-.117526-.174251-.17856-.26535-.126052-.197185-.230598-.360994-.295228-.528565-.027024-.086427.004559-.140178.02561-.196344-.012606-.01445-.039583-.096069-.055489-.134453.920996-.543804 1.600318-1.411889 1.919339-2.414468.04308.006771.117955.020018.142279.024899.050071-.033024.09611-.076114.186385-.069005.177754.02571.360201.091735.580497.170734.102399.039225.184884.084756.298785.115246.024073.006444.058559.012456.086079.018496.002213.000542.004172.001626.006403.002133.001487.000332.003554.000385.00498.00071.197423.0425.389133-.065533.429681-.243296.040538-.177722-.085464-.358132-.281712-.405494-.028545-.006491-.069027-.017515-.096749-.022765-.115851-.021941-.210137-.016529-.319416-.02561-.232758-.024389-.425549-.044224-.596859-.098172-.069847-.027097-.119538-.110209-.143703-.144413l-.134453-.039127c.069711-.504336.050915-1.029218-.069717-1.554394-.121754-.530066-.336924-1.014864-.623892-1.441994.03449-.031353.099623-.08903.118091-.105998.005399-.059738.00076-.122371.062603-.188519.130927-.122945.296015-.224891.49513-.347871.094511-.055603.181879-.091445.276732-.161486.02145-.015839.05074-.040921.073273-.059046.159702-.127398.196471-.347124.08181-.490861s-.33685-.157277-.496552-.029879c-.022731.018004-.053577.041489-.073985.059046-.089385.076898-.144588.15285-.21982.232626-.164189.166772-.299902.305905-.448889.406205-.06456.037586-.159124.024581-.202037.022053l-.126628.090347c-.722065-.757163-1.705173-1.241249-2.763758-1.335286-.002961-.044362-.00684-.124549-.007825-.148681-.043337-.041469-.095689-.076873-.108843-.166466-.014482-.179018.009697-.371622.037704-.603973.01546-.108559.041144-.198741.045529-.31657.000997-.026786-.000603-.065653-.00071-.094615-.000022-.204291-.149063-.369943-.332932-.369924zm-.416876 2.582357-.098884 1.74647-.007114.003557c-.006632.156241-.135221.281-.293094.281-.06467 0-.124362-.020768-.172869-.0562l-.002846.001423-1.432034-1.015158c.440122-.432781 1.003073-.752606 1.651855-.899912.118512-.026909.236972-.046875.354985-.06118zm.834464 0c.757456.09316 1.457958.436142 1.994746.961803l-1.422786 1.008755-.00498-.002133c-.126285.092235-.304213.06935-.402648-.054066-.040324-.050559-.061481-.110007-.064025-.170023l-.001423-.00071-.098884-1.743627zm-3.360621 1.613439 1.307541 1.16953-.001423.007114c.11802.102599.135424.28064.036992.404071-.040321.050562-.094293.084474-.152238.100306l-.001423.005691-1.676042.483747c-.085305-.780033.098538-1.538285.486593-2.17046zm5.876818.00071c.194275.314892.34139.666595.428969 1.047882.08653.376715.108246.752755.072562 1.116176l-1.684579-.48517-.001423-.007114c-.150849-.041227-.243557-.194674-.208438-.348583.014388-.063049.047856-.116387.093192-.155795l-.00071-.003557zm-3.20198 1.259166h.535679l.332932.416165-.119514.519317-.480902.231203-.482325-.231914-.119514-.519317.333643-.415454zm1.717303 1.424209c.022764-.001149.045428.000902.067582.00498l.002846-.003557 1.733665.293094c-.253723.71283-.73923 1.330366-1.387928 1.743624l-.672978-1.625533.002133-.002846c-.06182-.143644.000046-.312092.142279-.380595.036415-.017538.074461-.02725.1124-.029167zm-2.911732.007114c.132302.001855.250971.093682.281712.228357.014392.063049.007387.125518-.016362.180694l.00498.006403-.665864 1.609171c-.622547-.399486-1.118407-.997636-1.38366-1.731529l1.718726-.291671.002846.003557c.019225-.003538.038722-.005245.057623-.00498zm1.451953.704992c.046086-.001694.092849.007763.137299.029167.058266.028058.103277.072237.131608.125205h.006403l.847269 1.530918c-.10996.03686-.223004.068363-.338623.094615-.647983.147125-1.293907.102548-1.878789-.096749l.845135-1.528072h.001423c.050712-.094801.146888-.151359.248276-.155084z" fill="#fff" stroke="#fff" stroke-width=".005691"/></svg>