<?xml version="1.0" encoding="UTF-8"?><svg id="uuid-5e637705-f69a-4146-82be-a1e83af7a55d" xmlns="http://www.w3.org/2000/svg" viewBox="0 0 16 16"><rect width="16.073362" height="16" fill="none" stroke-width="0"/><polygon points=".636953 3.730598 .253058 5.342957 .291448 10.064866 .636953 11.331719 6.856053 11.446888 11.501182 11.25494 13.151931 8.798012 15.148185 7.953443 15.033017 6.993706 13.267099 6.456253 11.539572 3.807377 .636953 3.730598" fill="#2e8cbf" stroke-width="0"/><path d="M1.983655,12.327356l.698034-.042462c.004986.22696.009976.497242.014965.7242-.243569-.000605-.487137-.00121-.730705-.001815.005902-.226641.011804-.453282.017706-.679923Z" fill="#8f5444" stroke-width="0"/><path d="M9.719419,12.274176c.229735-.000591.464441.054108.694175.053523.006292.199029.010352.398164.020332.597002.002744.054666-.005284.075264-.06603.073892-.202168-.004574-.404501-.005243-.606706-.002537-.057177.000765-.06514-.020105-.06246-.070019.01067-.198744.012472-.452984.020689-.65186Z" fill="#8f5444" stroke-width="0"/><path d="M15.396303,6.804281c.136843.017733.274446.008849.411338.005612.088723-.002098.150552.025849.192359.101925v1.183643c-.049267.077873-.119342.102685-.211093.099956-.159212-.004735-.318754.001506-.478094.003134-.035046-.000883-.070151-.002403-.105261-.002525-.289407-.001004-.578813-.001748-.868219-.002571-.000332-.46053-.000664-.92106-.000997-1.38159.037671-.001312.075335-.003604.113012-.003781.31565-.001487.631304-.002586.946955-.003802Z" fill="#e57717" stroke-width="0"/><path d="M.013224,8.452435l-.006616.000074-.006608-.000334v-1.783571c.004287-.000418.008581-.000508.012892-.000271.000118.594701.000225,1.189401.000331,1.784102Z" fill="#f4f7f9" stroke-width="0"/><path d="M2.262959,11.621033c.026996-.001142.053991-.003282.080987-.003284,2.583631-.000151,5.138757-.038661,7.722388-.038564.024316,0,.048633.00135.072947.002065.087316.205747.170122.483323.268598.684587.008514.0174.004115.041095.005716.06186-.229734.000585-.459468.001176-.689203.001767-.348876-.000662-.697751-.001901-1.046627-.001891-1.998693.000051-3.997386.0004-5.996075.000645-.232676-.00029-.465355-.000577-.698034-.000863,0-.0386.018657-.088796.028291-.112188.083205-.202055.167136-.392356.251014-.594134Z" fill="#b6673c" stroke-width="0"/><path d="M15.20555,8.196024c-.289405-.001004-.578809-.001748-.868217-.00257-.392793.01227-.765405.111328-1.128235.256473-.218039.087224-.366659.248531-.497631.434654-.234.332535-.377126.660739-.592161,1.058074s-.688505.864407-.944546.972224c-.136168.057339-.355934.123738-.544301.14731-.018301.035689-1.71743.122766-2.533684.145937-.971024.027566-1.942342.028022-2.913695.021797-.543789-.003484-1.087303-.019046-1.630589-.038638-.537633-.019387-1.074807-.023373-1.612163-.050323-.080967-.00406-.738967-.015157-.984005-.062863-.129504-.025212-.213877-.108565-.25368-.226435-.076792-.227416-.114957-.463323-.135377-.702809-.02144-.251437-.086719-1.071113-.096072-1.229754-.041161-.698187-.037759-1.397157-.030391-2.095858.004001-.379474.022556-.759314.050005-1.137871.026794-.369519.069807-.73802.112925-1.106124.015559-.132831.043456-.264601.085328-.39344.060622-.186531.195228-.271926.379312-.288483.160796-.014463.607411-.01567.669169-.01603.324836-.001893.649823.004198.974502-.003407,1.250081-.029282,2.500405-.019129,3.750362-.00877.952402.007892,1.904886-.00298,2.857033.015356.291868.005621.58433-.004811.875469.013774.433696.027688.856828.103055,1.23298.341847.232665.147704.418573.340374.545324.585102.141639.273469.27237.552612.416206.824888.136229.257876.292105.502432.498823.713704.176063.17994.386338.284503.624319.35601.23459.070489.471457.083844.712412.079621.037248-.000653.076125-.008022.111366.012439.037663-.001309.075329-.0036.113006-.003777.31565-.001487.631305-.002586.946976-.003781-.004509-.042754-.007949-.085678-.013782-.128276-.014999-.10957-.037349-.217337-.081398-.319653-.02831-.065753-.070728-.103896-.149284-.096634-.064406.005954-.1298.000879-.194753.001298-.197091.001273-.30635.107239-.303822.303909.000888.069004-.023524.0865-.088596.087596-.194502.003278-.371242-.06925-.546842-.133094-.291816-.106098-.500373-.3225-.683446-.564984-.298475-.395333-.494608-.847143-.712055-1.287106-.045541-.092139-.09348-.182347-.153451-.266049-.185302-.258619-.407229-.482432-.65311-.683117-.191435-.156244-.402249-.270121-.653803-.296723-.177488-.018768-.354442-.019497-.533009-.017355-.5518.006621-1.10378-.00284-1.655607-.004613-2.722398-.008747-5.444845-.017474-8.167216.009915-.010825.000108-.021668-.000131-.032471.000413-.264939.013343-.41609.122387-.488864.359686-.060176.196225-.086323.399167-.105901.60275-.018812.195618-.114612,1.187082-.128137,1.488097-.012102.269345-.020709.538848-.037884.807968.000118.594702-.002765,1.474479.000332,1.784102s.036175.991487.057235,1.153448.061702.621111.088593.931853c.02166.25027.0644.495626.133882.736238.042518.147241.123435.267716.285477.300298.12643.025421.255134.049428.383493.053582.380744.012324.640563.04467,1.021751.019267.047092-.003138.318132-.003375.345128-.003376,2.583631-.000151,5.16726-.000144,7.75089-.000048.024317.000001.048635.00135.072947.002065.024286-.001027.048569-.002844.07286-.002952.323813-.001436.647835.003932.969625-.044077.503626-.075136.888187-.329768,1.157037-.760402.167419-.268167.306992-.551326.446857-.834082.182015-.367968.375222-.729114.617634-1.061824.117113-.160732.244456-.313362.442031-.377044.215152-.069347.432585-.1323.651061-.190436.106202-.028261.127817-.007694.156667.100749.043745.164421.138971.238574.307397.239137.056787.00019.113678-.00213.170343.000529.056401.002647.091571-.020172.112136-.072553.056396-.143626.061275-.293127.054545-.444257-.035043-.000883-.070149-.002404-.105261-.002525Z" fill="#75c4ee" stroke-width="0"/><path d="M2.135361,7.437827c-.002678-.543072.005515-1.086501-.012307-1.629079-.010421-.317224-.300248-.474996-.536644-.31506-.144831.097989-.162943.250841-.163796.405755-.003468.628873-.005542,1.257767-.004684,1.88665.000612.447726.002445.895541.012272,1.343127.004656.212107.117634.341944.339915.338266.214391-.003549.332028-.128901.355925-.335888.013052-.113053.024901-.231446.005709-.341968-.045842-.264013.090289-.424452.273107-.581827.115349-.099297.162215-.077238.232481.041457.198798.335815.402459.669122.615768.995898.151167.231572.360849.298044.524771.169232.193334-.151922.17294-.344566.055462-.534684-.170183-.275413-.344946-.548014-.518419-.821395q-.283243-.446371.105851-.820986c.041206-.03968.082692-.079331.120849-.121857.134852-.150296.254535-.31974.069865-.496854-.17951-.17216-.361504-.102095-.526097.057817-.307024.298295-.619885.590605-.949999.904097,0-.052555.000194-.09763-.000029-.142701Z" fill="#fafbfd" stroke-width="0"/><path d="M6.471579,6.724602c-.063083-.151202-.182297-.208852-.343489-.194627-.167757.014809-.277298.106983-.278829.268906-.007463.78946-.00915,1.579108.001369,2.3685.002418.181403.129067.29225.319379.301131.200708.009366.329537-.088383.365648-.284609.020472-.111246.016626-.227285.020012-.341273.011575-.389757.007009-.780653.036215-1.169044.028022-.37262.297174-.601479.642669-.585891.310801.01402.435332.169389.44969.600814.015499.46573.007405.932273.02488,1.397889.008278.220593.108247.389325.366952.382094.258493-.007224.344748-.180567.346472-.401817.004377-.561371.013645-1.123507-.009803-1.684054-.021368-.510878-.376205-.828053-.890715-.858518-.390777-.023134-.704638.123978-.983698.440294-.030886-.113387-.04163-.179579-.066751-.239795Z" fill="#fafbfd" stroke-width="0"/><path d="M5.097391,7.010618c-.00315-.324471-.118426-.477213-.356916-.484772-.244984-.007761-.373691.136723-.377028.462266-.006912.674318-.006566,1.348808.000681,2.02312.00248.230732.057978.445704.354033.45761.241317.009703.37274-.148123.378495-.463572.006063-.332337.001359-.664872.001404-.997319s.002557-.664919-.00067-.997334Z" fill="#fafbfd" stroke-width="0"/><path d="M4.737266,5.46919c-.211161.014168-.36611.122903-.371739.350756-.005727.231778.148755.35072.360179.354309.213681.003631.352886-.118028.371104-.325091.00375-.217481-.160669-.393317-.359544-.379974Z" fill="#fafbfd" stroke-width="0"/><path d="M11.112392,9.056018c-.251562.22833-.525764.416732-.895852.416961-.615995.000382-1.079843-.427725-1.199906-1.153392-.043378-.262162-.041877-.529979.018811-.794514.221481-.965412,1.17116-1.31182,1.960128-.712944.035216.026732.070802.052976.172795.129215,0-.4216-.003925-.777195.001522-1.132651.003101-.202391.082357-.353736.313822-.364816.174387-.008348.298673.062345.333462.242186.019752.102111.032111.207364.032367.311242.002377.971578.002139,1.943166.000254,2.914746-.000184.094524-.012253.18965-.026258.283389-.026352.1764-.132685.266799-.311302.272457-.17843.005654-.284754-.083229-.33413-.250353-.014911-.05046.014014-.115991-.065713-.161527ZM9.798378,8.449019c.11611.29615.332584.459021.622835.457581.2868-.001423.521502-.166483.621292-.461915.103606-.306729.104659-.61846-.017891-.922823-.116261-.288736-.357271-.462048-.629096-.460479-.269107.001554-.487992.184232-.60096.48933-.054299.146648-.057661.297796-.067239.449512.011739.151429.013893.30299.071059.448794Z" fill="#fafbfd" stroke-width="0"/></svg>