<svg viewBox="0 0 16 16" xmlns="http://www.w3.org/2000/svg"><path d="m.359162 10.000025 3.901496 4.857363c.009754.009754.009754.019507.019508.019507 0 0 .009754.009754.019508.019507.058522.058523.097537.097537.146306.117045l.009754.009754c.058522.039014.126799.068276.224336.097537.068276.019507.136553.029262.185321.029262h6.339932c.048769-.009754.07803-.009754.117045-.019507.009754 0 .019507 0 .029262-.009754q.009754 0 .019507-.009754c.019507-.009754.048769-.019507.068276-.019507.019507-.009754.029262-.019507.048769-.019507.019507-.009754.039014-.019507.068276-.039014.07803-.048769.136552-.097537.175568-.15606l.009754-.009754 3.901497-4.847609c.048769-.058522.087783-.126799.117045-.214582l.009754-.029262c.009754-.029262.019507-.048769.019507-.058522.029262-.136553.029262-.253597 0-.370642l-1.404538-6.04732c-.048769-.224336-.204829-.409657-.419411-.516948l-5.647418-2.70179c-.214582-.107291-.458426-.107291-.663255 0l-5.637663 2.692034c-.204828.097537-.360889.282859-.419411.526702l-1.394784 6.057074c-.019508.107291-.019508.224336 0 .331627v.009754c0 .009754.009754.029262.019508.068276 0 .009754.009754.019507.009754.029262.019508.048769.048769.097537.068276.136553 0 .009754.009754.009754.009754.019507l.009754.009754c.029261.009754.039015.019507.039015.039015h-.000002z" fill="#00b050"/><path d="m13.341392 8.800314-1.658136-.351135c.019507-.146306.029262-.302366.029262-.448672 0-.741284-.224336-1.4338-.594979-2.019025l1.336264-1.04365c.136552-.107291.165813-.302366.058523-.448672-.107292-.136553-.302367-.165813-.448673-.058522l-1.346017 1.04365c-.614486-.663255-1.453308-1.092419-2.39942-1.180203v-1.697151c0-.165814-.136553-.321873-.321874-.321873-.165813 0-.321874.136553-.321874.321873v1.716658c-.926605.07803-1.755673.507194-2.360406 1.141187l-1.316754-1.063157c-.136553-.107291-.331627-.07803-.448672.039015-.107291.136553-.07803.331627.039015.448672l1.316755 1.063158c-.39015.585224-.62424 1.297248-.62424 2.058039 0 .185321.009754.360888.039015.536456l-1.677644.39015c-.165814.039015-.282859.204828-.243844.380396.019508.136553.165814.243844.302366.243844.019508 0 .039015 0 .068276-.019507l1.677644-.39015c.273105.838822.838822 1.550844 1.570353 2.009271l-.741285 1.531336c-.07803.15606-.019507.351135.136553.419411.039015.019507.097537.019507.136553.019507.107291 0 .224336-.068276.282859-.165813l.770546-1.521584c.429165.175568.907098.273105 1.394785.273105.46818 0 .907098-.087783 1.316755-.243844l.751038 1.541091c.058522.107292.165813.18532.282859.18532.039015 0 .097537-.019507.136553-.019507.15606-.068276.224336-.263351.136553-.419411l-.741284-1.560599c.790053-.46818 1.385031-1.219218 1.658136-2.106808l1.658136.351135h.068276c.136552 0 .282858-.097537.302367-.243844.058522-.18532-.058525-.351134-.224338-.390149zm-2.272622-.790053c0 .107291-.009754.204828-.019507.312119l-1.365524-.292612v-.019507c0-.282859-.068276-.546209-.195075-.770546l1.111927-.85833c.302366.46818.468179 1.024144.468179 1.628875zm-.858329-2.136069-1.102173.85833c-.224336-.195075-.487687-.331627-.790053-.39015v-1.394785c.731531.07803 1.394785.419411 1.892226.926605zm-1.443553 1.51183.195075.829068-.526702.673008h-.85833l-.546209-.6535.204828-.838822.770546-.360888zm-1.09242-2.438436v1.404539c-.292612.058522-.555963.185321-.770546.380396l-1.092419-.877837c.487687-.497441 1.131434-.829068 1.862965-.907098zm-2.750554 3.062675c0-.614486.175568-1.180203.487687-1.658136l1.082665.868083c-.126799.243844-.195075.507194-.195075.790053v.068276l-1.35577.312119c-.009754-.126798-.019507-.253596-.019507-.380395zm.165813.985128 1.346017-.312119c.107291.263351.292612.487687.516949.6535l-.62424 1.248478c-.575471-.370642-1.014389-.936358-1.238726-1.589859zm2.906615 2.087301c-.39015 0-.770546-.07803-1.111927-.204829l.633993-1.258232c.15606.039015.302366.068276.458426.068276s.302366-.019507.448672-.058522l.614486 1.258233c-.321873.126799-.673008.195075-1.04365.195075zm1.619121-.458426-.604732-1.267986c.243844-.185321.429165-.419411.546209-.692516l1.375277.292612c-.23409.692516-.702269 1.287494-1.316755 1.66789z" fill="#fff"/><path d="m0 0h16v16h-16z" fill="none"/></svg>