<svg viewBox="0 0 16 16" xmlns="http://www.w3.org/2000/svg"><path d="m0 0h16v16h-16z" fill="none"/><path d="m14.4 14.6h-12.8c-.88 0-1.6-.72-1.6-1.6v-10c0-.88.72-1.6 1.6-1.6h12.8c.88 0 1.6.72 1.6 1.6v10c0 .88-.72 1.6-1.6 1.6z" fill="#1167f1"/><g fill="#fff"><path d="m4.232561 7.98001c-1.323364 0-2.4 1.076641-2.4 2.4s1.076636 2.4 2.4 2.4 2.4-1.076641 2.4-2.4-1.076636-2.4-2.4-2.4zm0 3.2c-.441826 0-.8-.358174-.8-.8 0-.441836.358174-.8.8-.8s.8.358164.8.8c0 .441826-.358174.8-.8.8z"/><path d="m13.146008 9.036738v-1.193936c0-.599531-.487734-1.087266-1.087266-1.087266h-3.018906l-.707695-2.92375c-.086875-.358984-.408203-.611797-.777539-.611797h-4.384844c-.441836 0-.8.358164-.8.8s.358164.8.8.8h.285586v1.063437h-.285586c-.441836 0-.8.358164-.8.8s.358164.8.8.8h1.315352c1.45793 0 2.644023 1.186094 2.644023 2.644961l.000547.469492c.000508.441445.358555.799062.8.799062h2.335576c.260674.801748 1.014634 1.383066 1.902183 1.383066 1.102803 0 2-.897197 2-2 0-.747461-.412437-1.400059-1.021431-1.743271zm-8.090664-3.114297v-1.102451h1.869805l.558687 2.308145c-.641416-.641299-1.486279-1.078545-2.428491-1.205693zm3.283203 2.429932c.02355.002129.047271.003359.071172.003359.001089 0 .002202-.000195.003291-.000195h3.132998v.523809c-.477085.156387-.87541.487539-1.119253.917598h-1.710356c-.039678-.512354-.171733-.998945-.377852-1.44457zm3.828892 2.827637c-.220918 0-.4-.179092-.4-.4 0-.220918.179082-.4.4-.4.220913 0 .4.179082.4.4 0 .220908-.179087.4-.4.4z"/></g></svg>